<svg width="1724" height="370" viewBox="0 0 1724 370" fill="none" xmlns="http://www.w3.org/2000/svg">
<path d="M4.76837e-07 365V9.99998H157C173.333 9.99998 188.333 13.3333 202 20C216 26.6667 228 35.6667 238 47C248.333 58.3333 256.167 71 261.5 85C267.167 99 270 113.333 270 128C270 143 267.333 157.5 262 171.5C257 185.167 249.667 197.167 240 207.5C230.333 217.833 219 225.833 206 231.5L287 365H211L138 246H69V365H4.76837e-07ZM69 185.5H155.5C164.167 185.5 171.833 183 178.5 178C185.167 172.667 190.5 165.667 194.5 157C198.5 148.333 200.5 138.667 200.5 128C200.5 116.667 198.167 106.833 193.5 98.5C188.833 89.8333 182.833 83 175.5 78C168.5 73 160.833 70.5 152.5 70.5H69V185.5ZM354.453 9.99998L441.953 177L530.953 9.99998H605.453L476.453 241V365H407.953V240L279.453 9.99998H354.453ZM638.031 365V103H705.031V365H638.031ZM638.031 66.5V-9.53674e-06H705.031V66.5H638.031ZM840.973 137V365H771.973V9.99998H826.973L1010.47 244V10.5H1079.47V365H1021.97L840.973 137ZM1263.93 370C1242.93 370 1223.93 366.5 1206.93 359.5C1189.93 352.167 1175.43 342.333 1163.43 330C1151.43 317.333 1142.09 303 1135.43 287C1129.09 270.667 1125.93 253.5 1125.93 235.5C1125.93 210.5 1131.43 187.667 1142.43 167C1153.76 146.333 1169.76 129.833 1190.43 117.5C1211.43 104.833 1236.09 98.5 1264.43 98.5C1293.09 98.5 1317.59 104.833 1337.93 117.5C1358.26 129.833 1373.76 146.333 1384.43 167C1395.43 187.333 1400.93 209.333 1400.93 233C1400.93 237 1400.76 241.167 1400.43 245.5C1400.09 249.5 1399.76 252.833 1399.43 255.5H1196.93C1198.26 268.833 1202.09 280.5 1208.43 290.5C1215.09 300.5 1223.43 308.167 1233.43 313.5C1243.76 318.5 1254.76 321 1266.43 321C1279.76 321 1292.26 317.833 1303.93 311.5C1315.93 304.833 1324.09 296.167 1328.43 285.5L1385.93 301.5C1379.59 314.833 1370.43 326.667 1358.43 337C1346.76 347.333 1332.93 355.5 1316.93 361.5C1300.93 367.167 1283.26 370 1263.93 370ZM1195.43 213H1332.43C1331.09 199.667 1327.26 188.167 1320.93 178.5C1314.93 168.5 1306.93 160.833 1296.93 155.5C1286.93 149.833 1275.76 147 1263.43 147C1251.43 147 1240.43 149.833 1230.43 155.5C1220.76 160.833 1212.76 168.5 1206.43 178.5C1200.43 188.167 1196.76 199.667 1195.43 213ZM1473.04 9.99998L1561.04 141L1648.54 9.99998H1723.54L1600.54 190L1719.54 365H1644.54L1561.04 239L1477.04 365H1401.54L1520.54 190L1397.54 9.99998H1473.04Z" fill="#A2194F"/>
</svg>
